# Blender v2.79 (sub 0) OBJ File: 'medieval_contest.blend'
# www.blender.org
o Spear_asset_Cube.056
v -0.021732 2.320872 0.021182
v -0.011726 2.451335 0.011613
v -0.021732 2.320872 -0.021182
v -0.011726 2.451335 -0.011613
v 0.020616 2.322389 0.021182
v 0.011501 2.451335 0.011613
v 0.020616 2.322389 -0.021182
v 0.011501 2.451335 -0.011613
v -0.038359 2.487595 0.000000
v 0.038359 2.487595 0.000000
v -0.027276 2.312074 -0.026801
v -0.001277 2.313034 -0.037902
v -0.008773 2.728867 0.000000
v 0.008773 2.728867 0.000000
v -0.030502 2.320558 -0.000000
v -0.012419 2.451335 0.000000
v 0.029386 2.322703 0.000000
v 0.012193 2.451335 0.000000
v -0.001277 2.321630 -0.029955
v -0.001277 2.451335 -0.012807
v -0.001277 2.321630 0.029955
v -0.001277 2.451335 0.012807
v -0.001277 2.484340 -0.011179
v -0.001277 2.484340 0.011179
v -0.027276 2.312074 0.026801
v -0.038373 2.311676 -0.000000
v -0.001277 2.702670 -0.003329
v -0.001277 2.702670 0.003329
v -0.001277 2.804091 0.000000
v 0.024709 2.297318 -0.024937
v 0.037402 2.314391 0.000000
v 0.026305 2.313993 -0.026801
v -0.001277 2.313034 0.037902
v 0.026305 2.313993 0.026801
v -0.001277 2.296425 -0.035266
v -0.001277 2.296321 0.000000
v -0.035471 2.295162 -0.000000
v 0.035035 2.297688 0.000000
v -0.001277 2.296425 0.035266
v 0.024709 2.297318 0.024937
v -0.025146 2.295532 -0.024937
v -0.025146 2.295532 0.024937
v 0.015233 2.296979 -0.015590
v -0.001013 2.296421 -0.022047
v -0.001013 2.296356 0.000000
v -0.022389 2.295631 -0.000000
v 0.021688 2.297210 0.000000
v -0.001013 2.296421 0.022047
v 0.015233 2.296979 0.015590
v -0.015934 2.295862 -0.015590
v -0.015934 2.295862 0.015590
v 0.018301 -0.027385 -0.018639
v -0.001122 -0.028052 -0.026359
v -0.001122 -0.028130 0.000000
v -0.026680 -0.028996 -0.000000
v 0.026018 -0.027108 0.000000
v -0.001122 -0.028052 0.026359
v 0.018301 -0.027385 0.018639
v -0.018963 -0.028720 -0.018639
v -0.018963 -0.028720 0.018639
v -0.000466 2.329472 0.031448
v -0.009982 2.342162 0.031448
v -0.000466 2.329472 -0.030138
v -0.009982 2.342162 -0.030138
v 0.008412 2.343074 0.031448
v -0.000785 2.342618 0.037580
v -0.001104 2.355763 0.031448
v -0.000785 2.342618 -0.036270
v 0.008412 2.343074 -0.030138
v -0.001104 2.355763 -0.030138
vt 0.628385 0.181176
vt 0.606644 0.181176
vt 0.606644 0.090432
vt 0.628385 0.090432
vt 0.563160 0.090432
vt 0.584902 0.090432
vt 0.584902 0.181176
vt 0.563160 0.181176
vt 0.606644 0.181176
vt 0.606644 0.090432
vt 0.661625 0.090432
vt 0.671869 0.081397
vt 0.671869 0.100573
vt 0.661625 0.110713
vt 0.671869 0.119749
vt 0.650127 0.119749
vt 0.650127 0.181176
vt 0.638630 0.190212
vt 0.574658 0.081397
vt 0.616888 0.190211
vt 0.660371 0.091537
vt 0.650127 0.100573
vt 0.650127 0.081397
vt 0.650127 0.090432
vt 0.639883 0.081397
vt 0.573405 0.190211
vt 0.920407 0.797110
vt 0.921812 0.846233
vt 0.913747 0.846246
vt 0.906400 0.797385
vt 0.829653 0.797838
vt 0.823746 0.846479
vt 0.814906 0.845804
vt 0.814938 0.797191
vt 0.920418 0.855707
vt 0.921655 0.904086
vt 0.913589 0.904102
vt 0.906407 0.855794
vt 0.881991 0.798486
vt 0.875525 0.847101
vt 0.868348 0.846501
vt 0.868513 0.797267
vt 0.947181 0.858571
vt 0.939493 0.856380
vt 0.954471 0.846246
vt 0.706844 0.832174
vt 0.671615 0.919618
vt 0.665935 0.909185
vt 0.678535 0.828122
vt 0.884518 0.847931
vt 0.901966 0.863424
vt 0.873657 0.859372
vt 0.831128 0.847105
vt 0.848556 0.862427
vt 0.822051 0.858764
vt 0.947236 0.835705
vt 0.939490 0.833633
vt 0.954601 0.822535
vt 0.621449 0.114555
vt 0.649466 0.119325
vt 0.624356 0.191068
vt 0.649466 0.043307
vt 0.954601 0.838458
vt 0.954471 0.861436
vt 0.936065 0.855794
vt 0.929850 0.904102
vt 0.936056 0.797385
vt 0.930007 0.846246
vt 0.580722 0.107620
vt 0.653434 0.827452
vt 0.659400 0.918538
vt 0.653434 0.831177
vt 0.619542 0.918918
vt 0.615510 0.908678
vt 0.626929 0.827514
vt 0.794976 0.858129
vt 0.848556 0.858702
vt 0.897902 0.800435
vt 0.844597 0.799001
vt 0.599854 0.826879
vt 0.607289 0.917935
vt 0.551320 0.895827
vt 0.588995 0.934106
vt 0.579666 0.957882
vt 0.528034 0.906439
vt 0.644508 0.800728
vt 0.589341 0.800564
vt 0.579468 0.776241
vt 0.655300 0.777372
vt 0.644039 0.934653
vt 0.653569 0.957882
vt 0.683773 0.841855
vt 0.707917 0.833259
vt 0.682829 0.895587
vt 0.706104 0.906075
vt 0.550222 0.839045
vt 0.526230 0.829995
vt 0.829566 0.794383
vt 0.811030 0.793570
vt 0.813189 0.787544
vt 0.830662 0.788318
vt 0.881863 0.795014
vt 0.864728 0.793465
vt 0.867366 0.787544
vt 0.883086 0.788966
vt 0.939493 0.852530
vt 0.919694 0.852421
vt 0.919962 0.846246
vt 0.938384 0.846347
vt 0.848556 0.795860
vt 0.848107 0.789675
vt 0.963193 0.805148
vt 0.939490 0.797730
vt 0.952969 0.787544
vt 0.972723 0.787760
vt 0.953660 0.822535
vt 0.939490 0.812134
vt 0.972032 0.822318
vt 0.985512 0.812132
vt 0.985512 0.797728
vt 0.919689 0.793654
vt 0.901966 0.794002
vt 0.903507 0.787868
vt 0.919998 0.787544
vt 0.939490 0.794002
vt 0.938421 0.787868
vt 0.901914 0.797473
vt 0.901966 0.791274
vt 0.901966 0.852530
vt 0.903467 0.846347
vt 0.454328 0.031183
vt 0.446187 0.033841
vt 0.434085 0.032251
vt 0.434085 0.030049
vt 0.462466 0.028524
vt 0.445597 0.028491
vt 0.473388 0.030049
vt 0.473388 0.032251
vt 0.461876 0.033808
vt 0.462565 0.024705
vt 0.434085 0.026300
vt 0.434085 0.023202
vt 0.451111 0.020964
vt 0.474015 0.028445
vt 0.450281 0.028491
vt 0.489381 0.026301
vt 0.489381 0.023202
vt 0.473185 0.021011
vt 0.304896 0.233246
vt 0.293205 0.233241
vt 0.277216 0.020964
vt 0.293665 0.020972
vt 0.348699 0.020964
vt 0.364979 0.020981
vt 0.371600 0.233218
vt 0.348695 0.233194
vt 0.337185 0.020981
vt 0.332496 0.233218
vt 0.434085 0.233224
vt 0.417219 0.233280
vt 0.410355 0.021043
vt 0.434085 0.020964
vt 0.382809 0.021025
vt 0.399090 0.021015
vt 0.394505 0.233294
vt 0.371600 0.233308
vt 0.410355 0.020964
vt 0.410355 0.233223
vt 0.332496 0.233337
vt 0.320585 0.233286
vt 0.315738 0.021028
vt 0.332496 0.021099
vn 0.8000 0.6000 0.0000
vn -0.8374 0.5466 0.0000
vn -0.8000 -0.6000 0.0000
vn -0.5011 -0.3758 0.7795
vn -0.5011 -0.3758 -0.7796
vn 0.5321 -0.3473 -0.7722
vn -0.5321 0.3473 -0.7722
vn 0.5011 0.3758 -0.7795
vn 0.5011 0.3758 0.7795
vn 0.5321 -0.3473 0.7722
vn -0.5321 0.3473 0.7722
vn 0.8374 -0.5466 0.0000
vn -0.9931 0.1172 0.0000
vn -0.9658 -0.2593 0.0000
vn -0.6564 -0.0329 -0.7537
vn -0.7196 0.1253 -0.6830
vn -0.0246 0.1135 -0.9932
vn -0.0150 0.1054 -0.9943
vn 0.6426 -0.0322 -0.7655
vn 0.6940 0.1233 -0.7093
vn 0.9937 0.1122 0.0000
vn 0.9645 -0.2639 0.0000
vn 0.6426 -0.0322 0.7655
vn 0.6940 0.1233 0.7093
vn -0.0246 0.1135 0.9932
vn -0.0150 0.1054 0.9943
vn -0.6564 -0.0329 0.7537
vn -0.7196 0.1253 0.6830
vn -0.8133 -0.5818 -0.0000
vn 0.2484 0.0563 0.9670
vn 0.2423 0.0321 0.9697
vn 0.2591 0.0332 0.9653
vn 0.2414 0.0681 0.9680
vn -0.2735 0.0542 -0.9603
vn -0.0125 0.0685 -0.9976
vn 0.8109 -0.5852 -0.0000
vn -0.3128 0.0312 0.9493
vn -0.3096 0.0317 0.9504
vn -0.2907 0.0346 0.9562
vn -0.2907 0.0346 -0.9562
vn -0.3096 0.0317 -0.9504
vn -0.3128 0.0312 -0.9493
vn 0.2423 0.0321 -0.9697
vn 0.2591 0.0332 -0.9653
vn 0.2385 0.0319 -0.9706
vn -0.2735 0.0542 0.9603
vn -0.2656 0.0643 0.9619
vn 0.2385 0.0319 0.9706
vn 0.2484 0.0563 -0.9670
vn -0.0278 0.6786 0.7340
vn -0.5400 0.6671 0.5132
vn -0.5428 0.6670 0.5103
vn -0.0350 0.6785 0.7338
vn 0.4987 0.6900 -0.5247
vn 0.7198 0.6942 0.0000
vn 0.4958 0.6899 -0.5274
vn -0.7484 0.6633 0.0000
vn -0.0278 0.6786 -0.7340
vn -0.0350 0.6785 -0.7338
vn -0.5400 0.6671 -0.5132
vn -0.5428 0.6670 -0.5103
vn 0.4987 0.6900 0.5247
vn 0.4958 0.6899 0.5274
vn 0.0018 -0.1567 -0.9876
vn 0.7002 -0.1471 -0.6986
vn 0.6953 -0.1472 -0.7035
vn -0.0163 -0.1569 -0.9875
vn 0.0018 -0.1567 0.9876
vn -0.6965 -0.1662 0.6981
vn -0.7016 -0.1663 0.6929
vn -0.0163 -0.1569 0.9875
vn 0.9901 -0.1403 0.0000
vn -0.6965 -0.1662 -0.6981
vn -0.7016 -0.1663 -0.6929
vn 0.0358 -0.9994 -0.0000
vn 0.0366 -0.9993 -0.0000
vn 0.0366 -0.9993 0.0019
vn 0.0358 -0.9994 0.0019
vn 0.0358 -0.9994 -0.0019
vn 0.0366 -0.9993 -0.0019
vn 0.0350 -0.9994 -0.0019
vn 0.0350 -0.9994 -0.0000
vn 0.0350 -0.9994 0.0019
vn -0.9849 -0.1731 0.0000
vn 0.7002 -0.1471 0.6986
vn 0.6953 -0.1472 0.7035
vn -0.0358 0.9994 0.0000
vn -0.0358 0.9994 -0.0019
vn -0.0366 0.9993 -0.0019
vn -0.0366 0.9993 0.0000
vn -0.0358 0.9994 0.0019
vn -0.0366 0.9993 0.0019
vn -0.0350 0.9994 0.0019
vn -0.0350 0.9994 0.0000
vn -0.0350 0.9994 -0.0019
vn -0.7084 0.0018 0.7058
vn -1.0000 0.0018 -0.0000
vn -0.7171 0.0018 0.6970
vn 1.0000 0.0019 0.0000
vn 0.7064 0.0019 0.7078
vn 0.6977 0.0019 0.7164
vn 0.7064 0.0019 -0.7078
vn 0.6977 0.0019 -0.7164
vn -0.0063 0.0019 -1.0000
vn -0.0239 0.0019 -0.9997
vn -0.7084 0.0018 -0.7058
vn -0.7171 0.0018 -0.6970
vn -0.0063 0.0019 1.0000
vn -0.0239 0.0019 0.9997
s off
f 69/1/1 70/2/1 67/3/1 65/4/1
f 70/5/2 64/6/2 62/7/2 67/8/2
f 61/9/3 62/7/3 64/6/3 63/10/3
f 66/11/4 62/12/4 61/13/4
f 68/14/5 63/15/5 64/16/5
f 69/1/6 63/17/6 68/18/6
f 64/6/7 70/5/7 68/19/7
f 70/2/8 69/1/8 68/20/8
f 66/21/9 65/22/9 67/23/9
f 61/24/10 65/4/10 66/25/10
f 67/8/11 62/7/11 66/26/11
f 63/17/12 69/1/12 65/4/12 61/24/12
s 1
f 15/27/13 16/28/14 4/29/15 3/30/16
f 19/31/17 20/32/18 8/33/19 7/34/20
f 17/35/21 18/36/22 6/37/23 5/38/24
f 21/39/25 22/40/26 2/41/27 1/42/28
f 16/43/14 2/44/27 9/45/29
f 10/46/30 14/47/31 28/48/32 24/49/33
f 22/40/26 6/50/23 10/51/30 24/52/33
f 20/32/18 4/53/15 9/54/34 23/55/35
f 18/56/22 8/57/19 10/58/36
f 29/59/37 13/60/38 28/61/39
f 27/62/40 13/60/41 29/59/42
f 6/63/23 18/56/22 10/58/36
f 4/64/15 16/43/14 9/45/29
f 7/65/20 8/66/19 18/36/22 17/35/21
f 1/67/28 2/68/27 16/28/14 15/27/13
f 14/69/43 27/62/44 29/59/45
f 9/70/46 24/49/47 28/48/39 13/71/38
f 9/72/34 13/73/41 27/74/40 23/75/35
f 14/69/31 29/59/48 28/61/32
f 8/33/19 20/32/18 23/55/35 10/76/49
f 2/41/27 22/40/26 24/52/47 9/77/46
f 5/78/24 6/50/23 22/40/26 21/39/25
f 3/79/16 4/53/15 20/32/18 19/31/17
f 10/80/49 23/75/35 27/74/44 14/81/43
s 2
f 21/82/50 1/83/51 25/84/52 33/85/53
f 7/86/54 17/87/55 31/88/55 32/89/56
f 1/83/51 15/90/57 26/91/57 25/84/52
f 19/92/58 7/86/54 32/89/56 12/93/59
f 15/90/57 3/94/60 11/95/61 26/91/57
f 5/96/62 21/82/50 33/85/53 34/97/63
f 17/87/55 5/96/62 34/97/63 31/88/55
f 3/94/60 19/92/58 12/93/59 11/95/61
s 3
f 12/98/64 32/99/65 30/100/66 35/101/67
f 33/102/68 25/103/69 42/104/70 39/105/71
f 32/106/65 31/107/72 38/108/72 30/109/66
f 11/110/73 12/98/64 35/101/67 41/111/74
f 36/112/75 38/113/76 40/114/77 39/115/78
f 35/116/79 30/117/80 38/113/76 36/112/75
f 41/118/81 35/116/79 36/112/75 37/119/82
f 37/119/82 36/112/75 39/115/78 42/120/83
f 26/121/84 11/122/73 41/123/74 37/124/84
f 25/125/69 26/121/84 37/124/84 42/126/70
f 34/127/85 33/102/68 39/105/71 40/128/86
f 31/107/72 34/129/85 40/130/86 38/108/72
s 4
f 45/131/87 48/132/88 49/133/89 47/134/90
f 44/135/91 45/131/87 47/134/90 43/136/92
f 50/137/93 46/138/94 45/131/87 44/135/91
f 46/138/94 51/139/95 48/132/88 45/131/87
f 54/140/75 56/141/76 58/142/77 57/143/78
f 53/144/79 52/145/80 56/141/76 54/140/75
f 59/146/81 53/144/79 54/140/75 55/147/82
f 55/147/82 54/140/75 57/143/78 60/148/83
f 51/149/96 46/150/97 55/151/97 60/152/98
f 47/153/99 49/154/100 58/155/101 56/156/99
f 43/157/102 47/153/99 56/156/99 52/158/103
f 44/159/104 43/160/102 52/161/103 53/162/105
f 46/163/97 50/164/106 59/165/107 55/166/97
f 50/164/106 44/167/104 53/168/105 59/165/107
f 49/169/100 48/170/108 57/171/109 58/172/101
f 48/170/108 51/149/96 60/152/98 57/171/109
